 http://s15.postimage.org/i2vvzfl7f/secret_affair.png



A Secret Affair [2012] 720p Tagalog DVDRip EP



info:

Imdb                             : http://www.imdb.com/title/tt2420176/
Genres                           : Drama
Director                         : Nuel C. Naval
Audio Language                   : Filipino | English
Country                          : Philippines



General
Complete name                            : A Secret Affair [2012] 720p Tagalog DVDRip EP.avi
Format                                   : AVI
Format/Info                              : Audio Video Interleave
File size                                : 678 MiB
Duration                                 : 1h 48mn
Overall bit rate                         : 875 Kbps
Writing library                          : VirtualDubMod

Video
ID                                       : 0
Format                                   : AVC
Format/Info                              : Advanced Video Codec
Format profile                           : High@L3.1
Format settings, CABAC                   : Yes
Format settings, ReFrames                : 3 frames
Codec ID                                 : H264
Duration                                 : 1h 48mn
Bit rate                                 : 673 Kbps
Width                                    : 1 280 pixels
Height                                   : 720 pixels
Display aspect ratio                     : 16:9
Frame rate                               : 25.000 fps
Color space                              : YUV
Chroma subsampling                       : 4:2:0
Bit depth                                : 8 bits
Scan type                                : Progressive
Bits/(Pixel*Frame)                       : 0.029
Stream size                              : 521 MiB (77%)
Writing library                          : x264 core 119 r2106kMod 07efeb4
Encoding settings                        : cabac=1 / ref=3 / deblock=1:0:0

Audio
ID                                       : 1
Format                                   : MPEG Audio
Format version                           : Version 1
Format profile                           : Layer 3
Codec ID                                 : 55
Codec ID/Hint                            : MP3
Duration                                 : 1h 48mn
Bit rate mode                            : Constant
Bit rate                                 : 192 Kbps
Channel(s)                               : 2 channels
Sampling rate                            : 44.1 KHz
Compression mode                         : Lossy
Stream size                              : 149 MiB (22%)
Alignment                                : Split accross interleaves
Interleave, duration                     : 40 ms (1.00 video frame)
Interleave, preload duration             : 500 ms
Writing library                          : LAMELAME_MAJOR_VERSI




cast:

Gee-Ann Abrahan 	... 	Aimee
Say Alonzo 	... 	Paula
Jackie Lou Blanco 	... 	Cate
Shy Carlos 	... 	May
Anne Curtis 	... 	Rafi
Andi Eigenmann 	... 	Sam
Jaclyn Jose 	... 	Ellen (as Jacklyn Jose)
I.C. Mendoza 	... 	Miggy
Derek Ramsay 	... 	Anton
Ashley Rivera 	... 	Marielle
Joel Torre 	... 	Jimmy
Jill Yulo 	... 	Katie 





plot:


Rafi (Anne Curtis) is happily committed to her lovely partner in life, Anton (Derek Ramsay). She's a bachelorette from a 

rich family, who belongs to the "Friday Club", the regular get-together of her college friends. Rafi is an attention-getter 

because of her in and out beauty and impressive credentials. But one day, a major life decision shifts everyone's impression of her. 

Sam (Andi Eigenmann), a rebellious, carefree and happy-go-lucky woman, who thinks that she can get away with her 

every dilemma. However, her perspectives turn 180 degrees when she meets the man who unexpectedly changes her life.



ScreenShot:

 
http://s15.postimage.org/j1774ls7v/image.jpg 
http://s15.postimage.org/jrzxadul7/image.jpg 
http://s15.postimage.org/845vfu5gb/image.jpg 
http://s15.postimage.org/6dmuecnx7/image.jpg